<?xml version="1.0" encoding="UTF-8"?>
<svg id="_图层_1" data-name="图层_1" xmlns="http://www.w3.org/2000/svg" version="1.1" viewBox="0 0 4096 4096">
  <!-- Generator: Adobe Illustrator 29.6.1, SVG Export Plug-In . SVG Version: 2.1.1 Build 9)  -->
  <defs>
    <style>
      .st0 {
        fill: none;
      }

      .st1 {
        fill: #fd6602;
      }
    </style>
  </defs>
  <path class="st0" d=""/>
  <g>
    <path class="st1" d="M2062.5,1360.1v-170.2c0-.6-.4-1.2-1-1.4-62.4-21.8-107.5-74.5-120.2-138.9-16.6-84.3,26-167.8,102.1-205.5,93.2-46.2,198.3-6.2,246.4,83.2,18.2,33.8,22.3,72.3,18.9,110.7-3.4,37.6-18.6,69-42.6,97.7-20.9,25-47.2,42.3-78.9,52-1.6.5-2.7,2-2.7,3.6v168.1c0,2,1.6,3.7,3.6,3.7,14.4.2,34.7.2,60.7,0,77.3-.6,140.3,55.4,160.6,127,.5,1.8,2.1,3,4,3,97,.3,211.2.3,342.6,0,15.6,0,31.8.9,51.7,2.1,8.9.5,15.8,1.2,20.6,2.1,88.4,15.9,160,57.6,214.7,125.3,58.9,72.9,80.7,156.7,80.8,250.1.2,213.3.1,403.6-.3,570.7-.3,113.7-41.5,213.1-134,281.7-42.6,31.6-91.7,51.9-147.3,60.9-20.5,3.3-53.5,4.9-99.1,4.8-109.4-.4-204.6-.4-285.5,0-7,0-15.5,0-25.5-.4-1.4,0-2.8-.5-3.9-1.2-4.2-2.8-7.3-5.3-9.5-7.6-25.8-27.6-49.5-52.7-71.2-75.1-1.4-1.5-3.4-2.3-5.5-2.3h-500.7c-1.9,0-3.7.7-5,2.1l-82,82c-1.2,1.2-2.9,1.9-4.6,1.9-146.2.4-270.7.7-373.4.7-29.1,0-62.1-2-90.9-7.7-43.6-8.7-83.7-25.4-120.4-50.2-76-51.5-123.5-130.2-138.9-221.6-3.2-19.2-4.8-51.8-4.7-97.7.2-180.4.3-365.2,0-554.3,0-34.2.9-59.1,2.8-74.8,6.6-54.9,23.5-106.9,55.4-152.5,53.7-76.7,127.4-121.9,221.2-135.7,21.4-3.1,48.1-3.8,73.2-3.6,135.2.6,289.5.8,462.9.5,1.7,0,3.1-1.1,3.7-2.6,3.1-8.8,6.5-17.2,10-25.1,26.7-58.6,81.9-101.6,146.4-102,38.6-.2,59.7-.6,63.4-1,1.1-.1,2-1.1,2-2.2ZM2132.4,2628c4.2,0,211.4.1,621.6.3,38.2,0,64.3-1.5,78.3-4.4,75.1-15.9,133.4-73.4,149.1-148.2,2.8-13.5,4.2-34.2,4.2-62-.2-197.8-.2-377.2.1-538.4,0-35.1-1.5-60.2-4.6-75.4-16.1-78-75.2-142.8-153.3-160.4-11.8-2.7-36.8-4-74.7-4-337-.1-540.4,0-610.4.1-20.7,0-39.8,8.1-39.8,30.9,0,312.8,0,618-.2,915.6,0,14.4,1.3,24,4,28.9,4.7,8.7,12.7,14.4,23.8,16.9.6.1,1.2.2,1.8.2ZM1284.1,2129.8c0,39.4,0,61,0,64.6-.1,25.9,18.2,37.5,41.9,37.4,38.8-.2,81-.4,126.6-.3,10.1,0,17.2,3.3,21.3,10,2.2,3.6,3.3,11.6,3.1,23.9-.2,17.1-.3,57-.1,119.5,0,9.1.8,15.5,2.3,19.1,6.3,15.3,22.2,20.7,37.9,20.6,68.6,0,106.2,0,112.5.1,30.8.8,53-4.8,52.9-40.7-.1-84-.2-127.6,0-130.9.3-9.9,4.8-16.9,13.6-21,.8-.4,1.6-.6,2.5-.6,69.6-.1,113.1,0,130.2.2,10.9.2,19.2-1.3,24.9-4.4,10.7-5.8,16.2-15.3,16.4-28.6.3-22.9.4-45.9.4-69s-.1-46.1-.4-69c-.2-13.2-5.6-22.8-16.4-28.5-5.7-3.1-14-4.5-24.9-4.4-17.2.2-60.6.3-130.2.2-.9,0-1.7-.2-2.5-.6-8.8-4.1-13.3-11.1-13.6-21,0-3.3,0-46.9,0-130.9,0-35.9-22.1-41.4-52.9-40.7-6.4.2-43.9.2-112.5.1-15.7,0-31.6,5.3-37.9,20.6-1.5,3.7-2.3,10.1-2.3,19.2-.1,62.5,0,102.4.1,119.5.2,12.3-.9,20.3-3.1,23.9-4.1,6.6-11.2,10-21.3,10-45.6,0-87.8,0-126.6-.3-23.7-.1-42,11.5-41.9,37.4,0,3.7,0,25.2,0,64.6Z"/>
    <path class="st1" d="M3210.2,2452.5c-2-.2-3.5-1.8-3.5-3.8v-595.9c0-2.8,2.1-5.1,4.9-5.3,11.4-.9,26.1-1.2,44.2-.8,77.2,1.7,127.9,54.3,128.1,132,.4,201.2.4,311-.1,329.5-.5,16.7,1.3,37.3-3,53.5-12.6,47.5-42.3,76.7-89.1,87.7-23.2,5.5-56.3,5-81.4,3Z"/>
    <path class="st1" d="M945.6,2448.9c0,3.4-2.7,6.1-6.1,6.1h-55.8c-70.2,0-127.2-57.6-127.2-128.7v-351.4c0-71.1,56.9-128.7,127.2-128.7h55.8c3.4,0,6.1,2.7,6.1,6.1h0v596.5Z"/>
    <circle class="st1" cx="2575.9" cy="2134.2" r="192.7"/>
  </g>
  <path class="st0" d=""/>
</svg>